<?xml version="1.0" encoding="UTF-8"?>
<svg width="200" height="300" viewBox="0 0 200 300" fill="none" xmlns="http://www.w3.org/2000/svg">
  <!-- Coffee Beans -->
  <path d="M85 40C85 30 90 20 100 20C110 20 115 30 115 40C115 50 110 60 100 60C90 60 85 50 85 40Z" fill="#B5651D"/>
  <path d="M95 35C95 30 97 25 100 25C103 25 105 30 105 35C105 40 103 45 100 45C97 45 95 40 95 35Z" fill="#8B5A2B"/>
  
  <path d="M120 25C120 15 125 5 135 5C145 5 150 15 150 25C150 35 145 45 135 45C125 45 120 35 120 25Z" fill="#B5651D"/>
  <path d="M130 20C130 15 132 10 135 10C138 10 140 15 140 20C140 25 138 30 135 30C132 30 130 25 130 20Z" fill="#8B5A2B"/>
  
  <!-- Coffee Grinder Container -->
  <rect x="60" y="70" width="80" height="20" rx="2" fill="#8B5A2B" stroke="#6B4423" stroke-width="2"/>
  
  <!-- Funnel -->
  <path d="M65 90L75 120L125 120L135 90Z" fill="none" stroke="#8B5A2B" stroke-width="3"/>
  
  <!-- Gear -->
  <circle cx="100" cy="150" r="25" fill="#8B5A2B"/>
  <circle cx="100" cy="150" r="12" fill="white"/>
  
  <!-- Gear teeth -->
  <rect x="95" y="125" width="10" height="8" fill="#8B5A2B"/>
  <rect x="95" y="167" width="10" height="8" fill="#8B5A2B"/>
  <rect x="125" y="145" width="8" height="10" fill="#8B5A2B"/>
  <rect x="67" y="145" width="8" height="10" fill="#8B5A2B"/>
  <rect x="118" y="132" width="8" height="8" fill="#8B5A2B"/>
  <rect x="74" y="132" width="8" height="8" fill="#8B5A2B"/>
  <rect x="118" y="160" width="8" height="8" fill="#8B5A2B"/>
  <rect x="74" y="160" width="8" height="8" fill="#8B5A2B"/>
  
  <!-- Handle -->
  <path d="M125 140L140 135L145 145L130 150Z" fill="none" stroke="#8B5A2B" stroke-width="3"/>
  
  <!-- Text -->
  <text x="100" y="210" text-anchor="middle" font-family="Arial, sans-serif" font-size="24" font-weight="bold" fill="#8B5A2B">ROASTING</text>
  <text x="100" y="240" text-anchor="middle" font-family="Arial, sans-serif" font-size="24" font-weight="bold" fill="#B5651D">BOX</text>
  <text x="100" y="265" text-anchor="middle" font-family="Arial, sans-serif" font-size="14" fill="#666">Coffee Company</text>
</svg> 